<svg id="Layer_1" height="900" width="900"  data-name="Layer 1" xmlns="http://www.w3.org/2000/svg" viewBox="0 0 260.81534 209.64077"><defs><style>.cls-1{fill:#e09c26;}.cls-2{fill:#e09b26;}.cls-2,.cls-3{opacity:0.79;}.cls-3{fill:#8f7a48;}.cls-4{fill:#3e8941;}.cls-5{fill:#aac138;}.cls-6{fill:#afc736;}.cls-7{fill:#bdd631;}.cls-10,.cls-8{opacity:0.61;}.cls-9{fill:none;}.cls-10{fill:#b5cc34;}.cls-11{fill:#436538;}.cls-12{fill:#3f8941;}.cls-13{fill:#185128;}</style></defs><path class="cls-1" d="M228.64732,431.90308q12.06363,0,15.7274.983a17.17743,17.17743,0,0,1,9.4275,6.41138q3.797,4.93758,3.7978,12.75638a21.37654,21.37654,0,0,1-2.18932,10.14238,17.96132,17.96132,0,0,1-5.56288,6.45649,19.17059,19.17059,0,0,1-6.85819,3.10505,75.49579,75.49579,0,0,1-13.71679.93829h-8.62326v24.70851h-13.2253V437.68968l-.03871-.62022-.64732-5.16638Zm-7.99774,11.08066v18.58692h7.23818q7.81818,0,10.45514-1.02764a8.68484,8.68484,0,0,0,4.13312-3.217,8.80434,8.80434,0,0,0,1.49657-5.09353,8.46341,8.46341,0,0,0-2.1-5.89777,9.15163,9.15163,0,0,0-5.31693-2.90421,63.65729,63.65729,0,0,0-9.51686-.4468Z" transform="translate(-172.07301 -287.76375)"/><path class="cls-2" d="M244.6363,375.228s5.31861,13.30586,7.60467,22.17644,5.45856,21.24142,7.09147,34.09177,2.89257,17.08584,3.14139,38.88668l.10109,7.86364-26.07981-.14385s-6.485,3.30849.14,7.02454h7.13812s3.60015,2.159.381,4.77224H230.40671s-7.18477,3.1873,0,7.215l86.435.29s6.656-3.55855,0-7.01088l-21.89646-.25573s-2.86147-3.1966.93309-4.731l14.99161.06393s6.40721-3.32446-.12441-7.09646l-30.91631-.12786s-1.804-21.609-3.85676-31.966-6.2828-29.47268-10.32618-40.78866-5.59852-14.73634-5.59852-14.73634-4.10559-10.13323-7.77574-17.22969c0,0-1.89727,3.38041-7.26253,1.77412A3.49609,3.49609,0,0,1,244.6363,375.228Z" transform="translate(-172.07301 -287.76375)"/><path class="cls-3" d="M277.71427,487.07644s-2.77186-67.05518-27.23247-111.97586c0,0-.8309.35542-1.02151.40526,0,0,26.34806,52.42618,24.39722,109.38965l-9.89074,2.18095Z" transform="translate(-172.07301 -287.76375)"/><path class="cls-4" d="M241.06382,368.64875s-3.72981,1.604-9.79607,8.2109c0,0-1.02258-.03788-.70486-1.43465s-.67739-1.73318-2.94437,2.19135-4.05969,6.75007-4.05969,6.75007-1.43082,1.21635-1.11294-2.26522-1.13186-2.39755-3.357,2.83191a63.9647,63.9647,0,0,1-4.53033,8.79476s-1.54029,1.46268-1.16859-2.37848-1.193-3.92938-3.21589,1.24251-3.28645,6.82259-3.28645,6.82259-.65976.72144-1.31044-.97823-2.05421,1.82415-2.82054,3.54848-3.0304,6.40544-3.0304,6.40544-1.94583,1.29409-1.13659-3.627,3.05766-23.2395,15.44332-32.84168,24.31961-7.45658,24.31961-7.45658l-.05828-.7989s-8.10657-2.30774-13.27685-1.99355c-1.19677-.137.14-1.87311.14-1.87311s1.42682-2.25663-3.43521-.75208c-4.5247.68985-8.72733,1.37839-8.72733,1.37839s-2.3316-.11662-.57175-1.91435,3.47025-3.69613-4.34993-1.72246-10.56641,2.51443-10.56641,2.51443-1.8903-.21929.21289-2.06885,4.39988-4.43128-2.61093-2.56177-8.28621,2.026-8.28621,2.026-1.63.48264-.73505-1.30842-1.5403-.93-3.62744-.4865-7.722,1.97012-7.722,1.97012-5.33376.87283-.91-2.13365,17.80089-13.21794,32.56557-11.97283,23.41581,6.37363,28.19965,10.85585,5.55963,5.21674,5.55963,5.21674l.40335-.39884s-5.6633-17.81342-4.06737-28.7336,8.48986-30.41758,24.28248-39.43464-3.302,9.16806-3.302,9.16806-2.58571,3.99518.40541,3.32732S251.59,314.74783,251.59,314.74783s-2.04839,3.33729,3.19-.013-3.30342,8.78978-3.30342,8.78978l-3.316,5.5113s-1.79913,4.345,2.75253,1.09847-4.0402,10.543-4.0402,10.543-2.58022,3.50592.65532,2.58487-2.22879,7.474-1.62649,10.95183l-.55259,3.06641.6634.22427s8.22534-17.85093,18.11233-24.75078,25.09673-14.351,44.16079-8.57751-3.96925,1.55451-10.04655,3.69764-1.095,2.40029-1.095,2.40029,1.20557.82734-7.57237,2.60315-7.73216,2.52814-3.56626,4.25135-14.33513,5.16518-14.33513,5.16518-4.22773,1.3412.74632,2.645-7.12646,3.69838-10.21288,5.1106-1.35371,2.12393-1.35371,2.12393,2.35827.67134-5.13554,4.56036-5.94369,4.97976-5.94369,4.97976,3.11769-2.84985,10.143-4.12676,17.32481-3.02106,29.22531,9.5655c7.64658,7.11864,10.41,17.43475,10.41,17.43475s.45391,3.1758-6.12482-3.83368c-2.7349-2.89227-3.25373-3.80752-3.55906-1.84862s-.36079,1.89292-2.25443.00916-6.38143-5.95107-6.38143-5.95107-2.32554-1.73069-.2244,3.85948-5.3945-2.95712-5.7533-2.93675-5.98407-5.51765-5.98407-5.51765-.90636.4072.18646,3.82-4.3977-1.38181-4.3977-1.38181l-3.54445-2.83539s-1.89685-1.92158-1.46986.63645-3.238.35376-3.238.35376l-3.27988-1.10907a8.26623,8.26623,0,0,1-1.28715,5.87189c-1.948,3.11936-6.829,2.09889-6.829,2.09889s-3.73721-1.13246-4.13826-4.10655-.006-3.26831-.04471-3.297c-.37968-.28216-2.45034-1.894-2.81657-3.74646a5.93864,5.93864,0,0,1,1.50519-5.80342,6.05218,6.05218,0,0,1,6.6482-1.247,7.04719,7.04719,0,0,1,2.984,3.07095,8.8995,8.8995,0,0,1,.50647,2.48521,5.64189,5.64189,0,0,1,2.35336,1.78732,6.71668,6.71668,0,0,1,1.10422,2.3882l.01418.498" transform="translate(-172.07301 -287.76375)"/><path class="cls-5" d="M241.26385,368.448c.87747.16278,2.7843.602,3.24889.59554a4.07363,4.07363,0,0,0,3.53207-1.52222,7.06663,7.06663,0,0,0,1.68579-4.2942s.21917-.15217.72544.13374a5.937,5.937,0,0,1,3.14409,5.00216,9.29163,9.29163,0,0,1-1.46843,5.52134,4.74973,4.74973,0,0,1-3.58369,2.00429c-2.57418.27238-3.30737-.12249-3.30737-.12249a6.77544,6.77544,0,0,1-3.66763-2.89632A5.69691,5.69691,0,0,1,241.26385,368.448Z" transform="translate(-172.07301 -287.76375)"/><path class="cls-6" d="M239.27294,362.1158a6.24278,6.24278,0,0,1,1.57085-3.08946,4.77958,4.77958,0,0,1,2.12077-1.26643c.22986-.04822,3.49613-.15607,4.69673.97393a5.19237,5.19237,0,0,1,2.06931,4.49325,8.4792,8.4792,0,0,1-1.27369,3.78809,4.73741,4.73741,0,0,1-4.27119,2.00338,6.91813,6.91813,0,0,1-4.21355-2.14859,5.12539,5.12539,0,0,1-.82652-4.35645C239.77958,359.86291,239.27294,362.1158,239.27294,362.1158Z" transform="translate(-172.07301 -287.76375)"/><path class="cls-5" d="M239.68766,362.27961s-.47191,2.91.1253,3.86752a9.0952,9.0952,0,0,0,1.4421,1.71537l1.2008.7141-.39219-1.01529S239.715,367.00341,239.68766,362.27961Z" transform="translate(-172.07301 -287.76375)"/><path class="cls-7" d="M244.89736,357.86239c-2.34748,2.13427-2.89849,7.20561-2.89849,7.20561s.49706-1.553.596-1.35166a5.25234,5.25234,0,0,0,.35341,4.15977s1.51835.80715,2.01966.35747a4.01876,4.01876,0,0,0,1.56648-2.62918c-.00448-1.16638.55745,1.3848-.55562,2.27831s.80986.02193,1.61631-.83881a9.67665,9.67665,0,0,0,1.4564-2.54047,10.062,10.062,0,0,1-1.14809,2.949c-.58048.60132-.9799.97689-.9799.97689" transform="translate(-172.07301 -287.76375)"/><g class="cls-8"><path class="cls-9" d="M246.47069,370.95651" transform="translate(-172.07301 -287.76375)"/></g><g class="cls-8"><path class="cls-9" d="M245.98157,371.54555" transform="translate(-172.07301 -287.76375)"/></g><path class="cls-10" d="M246.841,375.8876a1.76451,1.76451,0,0,0-.02674-1.05963c-.10225-.34365-.26389-.66494-.39627-.99755" transform="translate(-172.07301 -287.76375)"/><path class="cls-10" d="M247.00455,375.08919l.64886.08171a.9074.9074,0,0,0,.33192.00076.87871.87871,0,0,0,.39691-.27857,7.37414,7.37414,0,0,0,1.4016-2.10617,3.052,3.052,0,0,0,.17637-.48832,1.9357,1.9357,0,0,0,.05638-.53316,7.2869,7.2869,0,0,0,.03133.87555,2.52113,2.52113,0,0,1-.09385.51771,7.984,7.984,0,0,1-.55,1.64945,2.84561,2.84561,0,0,0,.81495-.43237,5.13207,5.13207,0,0,0,.61835-.73158c.09783-.12045.20288-.23448.30785-.34842l.66953-.72671a6.3484,6.3484,0,0,0,.69774-.85152,2.177,2.177,0,0,0,.36835-1.03489,2.72356,2.72356,0,0,1-.3239,1.52473,4.26343,4.26343,0,0,0-.2588.48016c-.04218.10715-.0688.22029-.11207.327a5.52016,5.52016,0,0,1-.72216.9658c-.0987.14282-.1769.29953-.27244.4446a4.26616,4.26616,0,0,1-1.17391,1.07009" transform="translate(-172.07301 -287.76375)"/><path class="cls-11" d="M242.34135,357.72689s-14.58432-38.1914,16.53-63.81466c0,0-25.03961,26.00839-16.00576,63.64632Z" transform="translate(-172.07301 -287.76375)"/><path class="cls-11" d="M247.13752,358.23292s15.22957-37.92444,54.93933-34.24554c0,0-35.589.92445-54.44779,34.49748Z" transform="translate(-172.07301 -287.76375)"/><path class="cls-11" d="M250.19836,362.38065s29.29-9.13366,46.45348,16.86671c0,0-17.81937-21.25179-46.36018-16.44462Z" transform="translate(-172.07301 -287.76375)"/><path class="cls-11" d="M175.49493,354.35321s34.01974-21.466,64.03,5.51243c0,0-29.31187-20.76454-63.77666-5.01155Z" transform="translate(-172.07301 -287.76375)"/><path class="cls-11" d="M201.378,398.19839s6.8445-30.07066,36.77913-32.28112c0,0-26.33066,5.11735-36.38426,32.4071Z" transform="translate(-172.07301 -287.76375)"/><path class="cls-12" d="M316.3506,451.48354a4.86175,4.86175,0,0,1,4.85217-4.78367h-9.02951a.01077.01077,0,0,0-.01009.01454l.6344,1.69728,3.17976,8.5634h-13.117a.01.01,0,0,1-.00945-.01348l3.10388-8.52775a1.28843,1.28843,0,0,0-1.209-1.734h-7.6786a.01.01,0,0,0-.00934.00637l-11.43146,29.187a12.17145,12.17145,0,0,0,13.17132-7.8897l1.061-2.91983h18.37351a1.24152,1.24152,0,0,1,.91425.413,28.46658,28.46658,0,0,1-2.80467-13.11747Q316.34182,451.92756,316.3506,451.48354Z" transform="translate(-172.07301 -287.76375)"/><path class="cls-12" d="M327.18172,459.49339a14.45276,14.45276,0,0,0,1.53637,3.85866Z" transform="translate(-172.07301 -287.76375)"/><path class="cls-12" d="M319.14649,465.49662c.11413.22286.23351.44157.35459.659l-.09952-.26359A1.23086,1.23086,0,0,0,319.14649,465.49662Z" transform="translate(-172.07301 -287.76375)"/><path class="cls-12" d="M353.64574,459.95966a4.66821,4.66821,0,0,0-5.92077,2.69958,8.30882,8.30882,0,0,1-2.72382,3.73755,11.35772,11.35772,0,0,1-6.82827,2.13414,10.65738,10.65738,0,0,1-8.53533-3.87434,9.65757,9.65757,0,0,1-.91946-1.30454l2.72785,6.85135.21526.474,1.63765,3.19469a1.47215,1.47215,0,0,1-1.31006,2.14366H331.937a23.74551,23.74551,0,0,0,6.33408.82039q7.74714,0,12.78643-3.49574a14.76659,14.76659,0,0,0,5.28979-7.26611A4.75575,4.75575,0,0,0,353.64574,459.95966Z" transform="translate(-172.07301 -287.76375)"/><path class="cls-12" d="M333.29885,473.8721l-1.63765-3.19469-.21526-.474-2.72785-6.85135a14.45276,14.45276,0,0,1-1.53637-3.85866l-4.78018-12.006a1.24987,1.24987,0,0,0-1.16118-.78749h-.03759a4.86175,4.86175,0,0,0-4.85217,4.78367q-.00879.444-.00878.89561a28.46658,28.46658,0,0,0,2.80467,13.11747,1.23086,1.23086,0,0,1,.25507.39543l.09952.26359a20.62959,20.62959,0,0,0,3.01244,4.13144,20.07334,20.07334,0,0,0,9.42346,5.72868h.05181A1.47215,1.47215,0,0,0,333.29885,473.8721Z" transform="translate(-172.07301 -287.76375)"/><path class="cls-12" d="M392.01389,467.90688H373.23677a4.05443,4.05443,0,0,1-4.05444-4.05443v-4.98958a4.05443,4.05443,0,0,1,4.05444-4.05444l16.06356,0a3.99914,3.99914,0,0,0,3.82945-2.71654,4.0683,4.0683,0,0,0-3.84018-5.392h-25.77a4.05443,4.05443,0,0,0-4.05443,4.05443v21.207a4.05444,4.05444,0,0,0,4.05443,4.05444h28.49427a4.05444,4.05444,0,0,0,4.05443-4.05444h0A4.05443,4.05443,0,0,0,392.01389,467.90688Z" transform="translate(-172.07301 -287.76375)"/><path class="cls-12" d="M375.4855,436.0307h14.9646a4.07069,4.07069,0,0,0,4.07069-4.07069v0a4.07069,4.07069,0,0,0-4.07069-4.07069l-27.58737,0a4.08089,4.08089,0,0,0-4.04934,4.46949l.00931.10915c.00978.11862.01415.241.01415.36h0a3.20274,3.20274,0,0,0,3.20274,3.20274H375.4855Z" transform="translate(-172.07301 -287.76375)"/><path class="cls-12" d="M348.089,436.0307h14.9646a4.07069,4.07069,0,0,0,4.07069-4.07069v0a4.07069,4.07069,0,0,0-4.07069-4.07069l-27.58737,0a4.08088,4.08088,0,0,0-4.04934,4.46949l.00931.10915c.00978.11862.01415.241.01415.36h0a3.20273,3.20273,0,0,0,3.20274,3.20274H348.089Z" transform="translate(-172.07301 -287.76375)"/><path class="cls-12" d="M319.25611,436.0307H334.2207a4.07069,4.07069,0,1,0,0-8.14138H306.63335a4.08088,4.08088,0,0,0-4.04934,4.4695l.00929.10914c.00979.11862.01417.241.01417.36a3.20274,3.20274,0,0,0,3.20275,3.20274h13.44589Z" transform="translate(-172.07301 -287.76375)"/><path class="cls-12" d="M412.7569,436.03071h14.96459a4.07069,4.07069,0,0,0,4.0707-4.07069v0a4.07069,4.07069,0,0,0-4.0707-4.07069H400.13412a4.08089,4.08089,0,0,0-4.04933,4.46949l.0093.10916c.00978.11862.01415.241.01415.36h0a3.20275,3.20275,0,0,0,3.20274,3.20274H412.7569Z" transform="translate(-172.07301 -287.76375)"/><path class="cls-13" d="M317.25226,446.69988l-5.08909.01453,3.81417,10.26069a22.62158,22.62158,0,0,1,.648-8.34307C316.81235,447.94855,317.02453,447.30434,317.25226,446.69988Z" transform="translate(-172.07301 -287.76375)"/><path class="cls-13" d="M331.69208,427.71825a14.34531,14.34531,0,0,0-11.2626,8.31245l34.21728.02522a13.81524,13.81524,0,0,0-11.69334-8.294Z" transform="translate(-172.07301 -287.76375)"/><path class="cls-1" d="M400.16451,454.96981l18.77613-.19337a4.05443,4.05443,0,0,1,4.096,4.01246l.05138,4.98933a4.05443,4.05443,0,0,1-4.01246,4.096l-16.06272.16542a3.99912,3.99912,0,0,0-3.80126,2.75583,4.06829,4.06829,0,0,0,3.89549,5.3522l13.17507-.13569,2.87707-.02963,9.71648-.10007a4.05443,4.05443,0,0,0,4.01247-4.096l-.2184-21.2059a4.05443,4.05443,0,0,0-4.096-4.01246l-28.49276.29344a4.05443,4.05443,0,0,0-4.01246,4.096v0A4.05443,4.05443,0,0,0,400.16451,454.96981Z" transform="translate(-172.07301 -287.76375)"/></svg>