<svg id="Layer_1" data-name="Layer 1" xmlns="http://www.w3.org/2000/svg" viewBox="0 0 595.27557 841.88983"><defs><style>.cls-1{fill:#e09c26;}.cls-2{fill:#e09b26;}.cls-2,.cls-3{opacity:0.79;}.cls-3{fill:#8f7a48;}.cls-4{fill:#3e8941;}.cls-5{fill:#aac138;}.cls-6{fill:#afc736;}.cls-7{fill:#bdd631;}.cls-8{fill:#b5cc34;opacity:0.61;}.cls-9{fill:#436538;}.cls-10{fill:#3f8941;}.cls-11{fill:#185128;}</style></defs><path class="cls-1" d="M154.89911,400.28094q25.49824,0,33.24215,2.07764A36.30691,36.30691,0,0,1,208.06767,415.91q8.02545,10.43626,8.02722,26.96247,0,12.74912-4.62746,21.43741a37.96373,37.96373,0,0,1-11.758,13.64672,40.51988,40.51988,0,0,1-14.49578,6.563q-10.0113,1.98319-28.99245,1.9832H137.99472v52.22506H110.04109V412.51177l-.0818-1.31092-1.36822-10.91991Zm-16.90439,23.42061v39.28618h15.29895q16.52487,0,22.09847-2.17207a18.35666,18.35666,0,0,0,8.73595-6.79953,18.60936,18.60936,0,0,0,3.16323-10.76593,17.88869,17.88869,0,0,0-4.43858-12.46581,19.3432,19.3432,0,0,0-11.23811-6.13846q-5.007-.94262-20.11528-.94438Z"/><path class="cls-2" d="M200.07144,308.70171s10.2914,25.05143,14.71489,41.75238,10.56223,39.992,13.72187,64.18582,5.59707,32.16814,6.07854,73.21336l.1956,14.80517-50.464-.27083s-12.54828,6.229.27083,13.22535h13.81214s6.96622,4.06487.73722,8.98488H172.53744s-13.90241,6.00084,0,13.584l167.25025.546s12.87929-6.6998,0-13.19963l-42.36926-.48147s-5.53689-6.01836,1.80551-8.90717l29.00849.12036s12.39783-6.25909-.24073-13.36076l-59.82251-.24073s-3.49065-40.68412-7.46276-60.18361-12.15709-55.48929-19.981-76.79428-10.83305-27.74465-10.83305-27.74465-7.94424-19.0782-15.0459-32.439c0,0-3.6712,6.36441-14.05288,3.34019A6.93335,6.93335,0,0,1,200.07144,308.70171Z"/><path class="cls-3" d="M264.07671,519.2828s-5.36351-126.24723-52.69433-210.821c0,0-1.60779.66917-1.97661.763,0,0,50.983,98.70467,47.20817,205.95186l-19.13839,4.10617Z"/><path class="cls-4" d="M193.15875,296.31469s-7.21712,3.01986-18.95522,15.45894c0,0-1.97868-.07131-1.3639-2.70105s-1.31073-3.26313-5.6973,4.12572-7.85542,12.70862-7.85542,12.70862-2.76861,2.29005-2.15353-4.26483-2.19012-4.514-6.49575,5.33174a119.35172,119.35172,0,0,1-8.7661,16.55822s-2.98044,2.75384-2.2612-4.47806-2.30836-7.398-6.2227,2.33933-6.35922,12.84514-6.35922,12.84514-1.27663,1.35827-2.53567-1.84175-3.97486,3.43438-5.4577,6.68086-5.86376,12.05974-5.86376,12.05974-3.76515,2.43644-2.19928-6.82864,5.91651-43.75385,29.88255-61.83222,47.058-14.03878,47.058-14.03878l-.11279-1.50412s-15.68607-4.34486-25.69045-3.75333c-2.31575-.25793.27094-3.52658.27094-3.52658s2.76087-4.24864-6.64707-1.416c-8.7552,1.29881-16.88722,2.59516-16.88722,2.59516s-4.51161-.21957-1.10632-3.60422,6.71486-6.95885-8.41705-3.243-20.4458,4.734-20.4458,4.734-3.65771-.41287.41193-3.89511,8.51368-8.34293-5.05211-4.82314S88.203,273.81587,88.203,273.81587s-3.15393.90868-1.42232-2.46342-2.98045-1.751-7.019-.91594-14.942,3.70921-14.942,3.70921S54.4989,275.789,63.0588,270.12863s34.44439-24.88591,63.01378-22.5417,45.30918,11.99987,54.56583,20.43872,10.75778,9.82175,10.75778,9.82175l.78047-.75092s-10.95838-33.538-7.87027-54.09779,16.42771-57.26828,46.98616-74.245-6.38924,17.261-6.38924,17.261-5.0033,7.52186.78447,6.26446-12.16106,22.55431-12.16106,22.55431-3.9636,6.28323,6.1725-.02441-6.392,16.54884-6.392,16.54884l-6.41646,10.37633s-3.48129,8.18058,5.3261,2.06813S204.3991,243.652,204.3991,243.652s-4.99268,6.60071,1.268,4.86662-4.31266,14.07158-3.14722,20.61941l-1.06925,5.77323,1.28367.42226s15.91587-33.6086,35.047-46.59921,48.5617-27.019,85.45032-16.14918-7.68043,2.92674-19.43989,6.96168-2.1188,4.51912-2.1188,4.51912,2.33275,1.55767-14.6524,4.901-14.9616,4.75982-6.90066,8.00418-27.73822,9.72467-27.73822,9.72467-8.18058,2.52512,1.44413,4.97984-13.78958,6.96308-19.76174,9.62192-2.61941,3.9988-2.61941,3.9988,4.56322,1.264-9.93717,8.586-11.50094,9.37558-11.50094,9.37558,6.03268-5.36552,19.62662-7.7696,33.52319-5.68787,56.55044,18.00931c14.796,13.40251,20.14323,32.825,20.14323,32.825s.87831,5.9792-11.85143-7.21781c-5.292-5.44539-6.29589-7.16856-6.8867-3.48047s-.69813,3.56387-4.3623.01725-12.34794-11.2043-12.34794-11.2043-4.49988-3.25843-.43421,7.26639-10.43827-5.56748-11.13253-5.52913-11.57908-10.38828-11.57908-10.38828-1.75378.76664.36081,7.192-8.50948-2.60158-8.50948-2.60158l-6.85844-5.33829s-3.67038-3.61782-2.84415,1.19828-6.26545.666-6.26545.666l-6.34651-2.0881s1.27875,5.1823-2.49061,11.05523-13.21391,3.95166-13.21391,3.95166-7.23146-2.13214-8.00746-7.73157-.01169-6.15336-.08652-6.20747c-.73468-.53123-4.74137-3.5659-5.45-7.05358-.78084-3.84292-.493-7.601,2.91252-10.92633a11.95346,11.95346,0,0,1,12.86414-2.34778,13.40307,13.40307,0,0,1,5.77405,5.78179s1.24321,3.69864.98,4.679a10.9168,10.9168,0,0,1,4.55372,3.365,12.47112,12.47112,0,0,1,2.13664,4.49636l.02745.93765"/><path class="cls-5" d="M193.54579,295.93666c1.69791.30647,5.38759,1.13337,6.28656,1.12125s3.6308.44677,6.83449-2.86595a13.07983,13.07983,0,0,0,3.262-8.08483s.42408-.2865,1.40371.25179a11.19137,11.19137,0,0,1,6.08374,9.41776,17.16845,17.16845,0,0,1-2.84137,10.39521,9.21484,9.21484,0,0,1-6.93438,3.77357c-4.981.5128-6.39969-.23063-6.39969-.23063s-4.80528-1.3768-7.09681-5.453A10.46085,10.46085,0,0,1,193.54579,295.93666Z"/><path class="cls-6" d="M189.69343,284.01485s.73262-3.8489,3.03956-5.81663,3.65888-2.29358,4.10366-2.38436,6.76495-.29383,9.08808,1.83365,4.32641,4.41648,4.00409,8.45962a15.69934,15.69934,0,0,1-2.46458,7.132,9.23344,9.23344,0,0,1-8.26467,3.77184,13.47879,13.47879,0,0,1-8.15314-4.04524,9.4603,9.4603,0,0,1-1.59932-8.202C190.67377,279.77325,189.69343,284.01485,189.69343,284.01485Z"/><path class="cls-5" d="M190.4959,284.32328s-.91313,5.47882.24246,7.28151a17.2687,17.2687,0,0,0,2.79043,3.22958l2.32353,1.34448-.75888-1.91154S190.54887,293.217,190.4959,284.32328Z"/><path class="cls-7" d="M200.57658,276.0068c-4.54234,4.01828-5.60853,13.56627-5.60853,13.56627s.96181-2.92391,1.15323-2.54482a9.65872,9.65872,0,0,0,.68384,7.83175s2.938,1.51966,3.908.673,3.0398-2.75408,3.03112-4.95006,1.07864,2.60722-1.07512,4.28945,1.567.04129,3.12753-1.57925a18.08186,18.08186,0,0,0,2.81811-4.783s-1.09834,4.42012-2.22155,5.55225-1.89608,1.83922-1.89608,1.83922"/><path class="cls-8" d="M204.33755,309.94353a3.23682,3.23682,0,0,0-.05175-1.995c-.19785-.647-.51062-1.25191-.76678-1.87812"/><path class="cls-8" d="M204.654,308.44034l1.25552.15383a1.80361,1.80361,0,0,0,.64227.00142,1.70109,1.70109,0,0,0,.768-.52446,13.86238,13.86238,0,0,0,2.71207-3.96537,5.64537,5.64537,0,0,0,.34126-.91937,3.54981,3.54981,0,0,0,.10911-1.0038,13.35375,13.35375,0,0,0,.06062,1.64842,4.63159,4.63159,0,0,1-.18159.97472,14.75251,14.75251,0,0,1-1.06432,3.10547,5.55893,5.55893,0,0,0,1.57692-.814,9.73438,9.73438,0,0,0,1.19648-1.37737c.1893-.22679.39257-.44147.59569-.656l1.29553-1.36821a12.0274,12.0274,0,0,0,1.35011-1.60319,4.02858,4.02858,0,0,0,.71275-1.94842,5.013,5.013,0,0,1-.62674,2.87067,7.96011,7.96011,0,0,0-.50078.904c-.08161.20174-.13313.41474-.21684.61562a10.42077,10.42077,0,0,1-1.39737,1.81834c-.191.2689-.3423.56393-.52717.83706a8.178,8.178,0,0,1-2.27149,2.01471"/><path class="cls-9" d="M195.63074,275.7517s-28.22039-71.90435,31.98534-120.14617c0,0-48.45119,48.96693-30.97086,119.82923Z"/><path class="cls-9" d="M204.91124,276.70443s29.46894-71.40173,106.30662-64.47533c0,0-68.864,1.7405-105.3555,64.94966Z"/><path class="cls-9" d="M210.83392,284.5135s56.67569-17.19627,89.88665,31.75556c0,0-34.48016-40.0115-89.70612-30.96088Z"/><path class="cls-9" d="M66.28413,269.4s65.82758-40.41478,123.89694,10.37846c0,0-56.71795-39.09416-123.4067-9.43544Z"/><path class="cls-9" d="M116.36735,351.94886s13.244-56.61513,71.167-60.77684c0,0-50.94936,9.63463-70.40289,61.014Z"/><path class="cls-10" d="M337.30787,446.45188a10.276,10.276,0,0,1,10.25577-10.111h-19.0852a.02276.02276,0,0,0-.02133.03073l1.34089,3.58746,6.72089,18.1H308.79427a.02125.02125,0,0,1-.02-.02851l6.56051-18.02465a2.72329,2.72329,0,0,0-2.55533-3.665H296.54964a.02119.02119,0,0,0-.01973.01346l-24.16208,61.69091a25.72615,25.72615,0,0,0,27.83952-16.67605l2.24252-6.17148H341.285a2.62409,2.62409,0,0,1,1.93238.87285q-5.9196-11.56-5.92807-27.7257Q337.2893,447.39039,337.30787,446.45188Z"/><path class="cls-10" d="M360.201,463.38187a30.548,30.548,0,0,0,3.24734,8.15583Z"/><path class="cls-10" d="M343.21737,476.07057c.24123.471.49357.93332.74948,1.39293l-.21035-.55712A2.60164,2.60164,0,0,0,343.21737,476.07057Z"/><path class="cls-10" d="M416.1366,464.36739a9.867,9.867,0,0,0-12.51442,5.706,17.56164,17.56164,0,0,1-5.7572,7.89984,24.006,24.006,0,0,1-14.43253,4.51082,22.52593,22.52593,0,0,1-18.04068-8.189,20.41284,20.41284,0,0,1-1.94341-2.75733l5.76571,14.48134q.22761.50119.455,1.0019l3.46141,6.75244a3.11158,3.11158,0,0,1-2.769,4.53092H370.252a50.189,50.189,0,0,0,13.388,1.734q16.37473,0,27.026-7.38877,7.38147-5.12317,11.18075-15.358A10.052,10.052,0,0,0,416.1366,464.36739Z"/><path class="cls-10" d="M373.13047,493.77338l-3.46141-6.75244q-.22762-.50131-.455-1.0019l-5.76571-14.48134a30.548,30.548,0,0,1-3.24734-8.15583L350.0974,438.00536a2.64177,2.64177,0,0,0-2.45433-1.66448h-.07943a10.276,10.276,0,0,0-10.25577,10.111q-.01861.93855-.01857,1.893,0,16.17252,5.92807,27.7257a2.60164,2.60164,0,0,1,.53913.83581l.21035.55712a43.60358,43.60358,0,0,0,6.36725,8.73241A42.42781,42.42781,0,0,0,370.252,498.3043h.10951A3.11158,3.11158,0,0,0,373.13047,493.77338Z"/><path class="cls-10" d="M497.23331,481.165h-39.6882a8.56964,8.56964,0,0,1-8.56964-8.56964V462.04916a8.56964,8.56964,0,0,1,8.56964-8.56964h33.95271a8.45273,8.45273,0,0,0,8.09408-5.7418,8.59893,8.59893,0,0,0-8.11676-11.39684H437.00649a8.56964,8.56964,0,0,0-8.56963,8.56963v44.82416a8.56963,8.56963,0,0,0,8.56963,8.56963h60.22682a8.56963,8.56963,0,0,0,8.56964-8.56963v0A8.56963,8.56963,0,0,0,497.23331,481.165Z"/><path class="cls-10" d="M462.29814,413.79H493.928a8.604,8.604,0,0,0,8.604-8.604v0a8.604,8.604,0,0,0-8.604-8.604l-58.31,0a8.62557,8.62557,0,0,0-8.55887,9.44693q.01013.11473.01967.23071c.02067.25072.02991.50938.02991.76091v0a6.76947,6.76947,0,0,0,6.76947,6.76946h28.4199Z"/><path class="cls-10" d="M404.39159,413.79h31.62988a8.604,8.604,0,0,0,8.604-8.604v0a8.604,8.604,0,0,0-8.604-8.604l-58.31,0a8.62557,8.62557,0,0,0-8.55887,9.44693q.01013.11473.01967.23071c.02067.25072.02991.50938.02991.76091v0a6.76946,6.76946,0,0,0,6.76946,6.76946h28.4199Z"/><path class="cls-10" d="M343.44907,413.79h31.62987a8.604,8.604,0,1,0,0-17.208H316.769a8.62553,8.62553,0,0,0-8.55888,9.44694q.01009.11469.01964.23069c.02068.25071.03.50937.03.76091a6.76946,6.76946,0,0,0,6.76947,6.76947h28.41986Z"/><path class="cls-11" d="M339.21365,436.3409q-5.37825.01539-10.75655.03072l8.06181,21.68747a47.814,47.814,0,0,1,1.36969-17.6343C338.28383,438.98014,338.7323,437.61851,339.21365,436.3409Z"/><path class="cls-11" d="M369.73431,396.22044A30.32089,30.32089,0,0,0,345.92917,413.79l72.32324.05328a29.20063,29.20063,0,0,0-24.7156-17.53053Z"/></svg>